<?xml version="1.0" encoding="utf-8"?>
<!-- Generator: Adobe Illustrator 19.0.0, SVG Export Plug-In . SVG Version: 6.00 Build 0)  -->
<svg version="1.1" id="Layer_1" xmlns="http://www.w3.org/2000/svg" xmlns:xlink="http://www.w3.org/1999/xlink" x="0px" y="0px"
	 viewBox="0 0 268.8 251.1" style="enable-background:new 0 0 268.8 251.1;" xml:space="preserve">
<style type="text/css">
	.st0{fill:#8313C1;}
</style>
<g id="XMLID_39_">
	<path id="XMLID_61_" class="st0" d="M226.6,10c0,0-1,0-2.9,0.1c-2,0-4.7,0.2-8.3,0.4c-1.8,0.1-3.8,0.2-6.1,0.4
		c-2.2,0.2-4.6,0.4-7.2,0.7c-2.6,0.3-5.4,0.7-8.3,1.1c-2.9,0.4-6,0.9-9.3,1.5c-12.9,2.4-28.2,6.4-44.4,13.2c-4,1.8-8.1,3.6-12.3,5.6
		c-4.1,2.1-8.3,4.3-12.4,6.8c-4.1,2.5-8.2,5.1-12.3,8c-4.1,2.9-8.1,6-12,9.3c-7.8,6.6-15.3,14-22,22.3c-6.7,8.3-12.7,17.3-17.4,27
		c-2.3,4.9-4.5,9.8-6.2,14.9c-0.9,2.6-1.7,5.1-2.4,7.8l-0.5,2c0.3-0.7,0,0,0.1-0.1l-0.1,0.3l-0.2,0.6l-0.3,1.3
		c-0.1,0.5-0.1,0.7-0.2,0.9l-0.1,0.7l-0.3,1.7c-0.4,2.4-0.7,4.8-0.8,7.2c-0.2,2.4-0.3,4.7-0.2,7c0.1,4.6,0.8,9,1.9,13.1
		c2.4,8.2,6.3,15.4,12.2,21.5c2.9,3,6.4,5.7,10.2,8.1c3.8,2.5,8.1,4.6,12.8,6.3c4.7,1.7,9.7,3.1,15.1,4c2.7,0.5,5.4,0.8,8.2,1.1
		c1.4,0.2,2.8,0.3,4.3,0.4c-0.9-0.1,0,0-0.1,0l0.4,0l0.7,0l1.5,0.1l1.5,0.1l0.7,0l0.5,0l2,0.1l1,0l1.2,0c1.5,0,3.1,0,4.6,0
		c3.1,0,6.1-0.2,9.2-0.4c6.1-0.4,12.1-1.3,18-2.4c5.9-1.2,11.6-2.6,17.2-4.5c2.8-0.9,5.5-2,8.2-3.1c2.7-1.1,5.3-2.3,7.8-3.6
		c5.1-2.6,10-5.4,14.5-8.6c2.3-1.6,4.4-3.2,6.5-5c2.1-1.7,4-3.5,5.9-5.4c3.7-3.7,7-7.7,9.7-11.7c2.8-4,5.1-8.1,6.7-12.1
		c1.7-4.1,2.7-8.1,3.2-11.9c0.2-1.9,0.4-3.8,0.5-5.7c0-1.9-0.1-3.7-0.4-5.5c-0.1-0.5-0.1-0.9-0.2-1.4c-0.1-0.5-0.1-0.9-0.3-1.4
		l-0.2-0.7l-0.1-0.3c0.1,0.2-0.3-0.8,0.2,0.5l-0.1-0.3l-0.4-1.3l-0.2-0.5c0,0,0,0,0,0c0,0,0-0.1,0-0.1l-0.2-0.4
		c-0.1-0.3-0.2-0.6-0.3-0.9c-0.2-0.6-0.5-1.2-0.8-1.7c-0.6-1.1-1.2-2.2-2.1-3.2c-0.8-1.1-1.7-2.1-2.9-3.1c-2.3-2-5.4-3.9-9-5.4
		c-3.6-1.5-7.8-2.4-12.2-3.1c-8.8-1.3-18.3-0.5-27.1,1.9c-4.4,1.2-8.8,2.6-12.8,4.5c-4,1.8-8.1,4.2-11,6.1c-2.9,2-5.7,4.3-7.9,6.8
		c-2.2,2.5-3.9,5.1-4.9,7.4c-1.1,2.3-1.7,4.4-1.9,6.3c-0.2,1.9,0.1,4,1.2,6.2c1.1,2.2,2.8,4.6,5.2,6.8l0.3,0.3
		c0.1,0.1,0.1,0.1,0.1,0.1l0.2,0.2l0.2,0.2c0,0.1,0.2,0.2,0.3,0.3l0.7,0.6l0.8,0.5c1,0.7,2.1,1.3,3.3,1.8c2.3,1.1,4.9,1.7,7.6,2
		c2.7,0.2,5.4,0,8-0.4c5.3-0.9,10.2-3.1,14.3-5.5c2-1.2,3.9-2.5,5.5-3.8c0.8-0.6,1.6-1.2,2.3-1.9c0.7-0.6,1.4-1.2,2.1-1.8
		c1.3-1.2,2.4-2.3,3.3-3.2c0.9-1,1.7-1.8,2.3-2.5c1.2-1.4,1.8-2.2,1.8-2.2l0.4-0.4c0.8-0.9,2.2-1,3.1-0.2c0.8,0.7,1,1.8,0.5,2.7
		c0,0-0.5,0.9-1.4,2.6c-0.5,0.9-1.1,1.9-1.8,3.1c-0.8,1.2-1.6,2.6-2.7,4.2c-2.2,3.1-5,6.8-9.1,10.6c-4,3.8-9.2,7.6-15.8,10.5
		c-3.3,1.4-7,2.5-11,3.2c-4,0.6-8.3,0.7-12.6-0.1c-4.4-0.7-8.8-2.2-13-4.7c-4-2.4-7.9-5.5-11.3-9.4c-3.4-3.9-6.1-8.7-7.5-14.1
		c-1.4-5.4-1.5-11.2-0.4-16.9c1.1-5.7,3.3-11.1,6.3-16.3c3-5.1,6.8-9.9,11.3-14.1c2.2-2.1,4.7-4.1,7.1-5.9c2.5-1.8,5.1-3.6,7.8-5.2
		c5.4-3.3,11.2-6.1,17.2-8.5c12.2-4.7,25.7-7.3,39.6-6.9c7,0.2,14.1,1.2,21,3.1c7,2,13.8,4.9,20.1,9c6.3,4.1,11.9,9.5,16.3,15.9
		c2.2,3.2,4,6.6,5.6,10.2c0.4,1,0.7,1.7,1,2.6l0.1,0.3l0.1,0.4l0.2,0.7l0.5,1.4c0.3,0.9,0.6,1.8,0.8,2.8c0.3,0.9,0.5,1.9,0.7,2.8
		c3.7,15,2.6,31.3-2.5,46.2c-5.1,14.9-13.8,28.5-24.7,40.1c-10.9,11.6-23.9,21.1-38,28.6c-14.1,7.4-29.4,12.6-45.1,15.8
		c-7.8,1.5-15.8,2.5-23.7,3.1c-8,0.5-15.9,0.5-23.9,0.1c-2-0.1-3.8-0.3-5.9-0.4c-2-0.2-4-0.4-5.9-0.6c-4-0.5-7.9-1.1-11.8-1.9
		c-7.8-1.6-15.5-3.9-22.8-7c-14.7-6.1-28.2-15.3-38.5-27.3c-10.3-12-17.1-26.6-19.8-41.7C0,156.1,1.1,140.8,5,126.8
		c0.5-1.7,1-3.6,1.6-5.3l0.8-2.5l0.9-2.5c1.2-3.4,2.6-6.6,4-9.9c2.9-6.4,6.2-12.6,9.8-18.4c7.2-11.7,15.7-22.1,24.8-31.1
		C56,48,65.8,40.3,75.8,33.8c10-6.5,20.1-11.8,30.1-16c10-4.2,19.8-7.4,29.1-9.8c18.7-4.7,35.5-6.3,49.3-6.4
		c13.8-0.1,24.6,1.1,31.9,2.1c1.8,0.2,3.4,0.5,4.8,0.7c1.4,0.2,2.6,0.4,3.5,0.6c1.9,0.3,2.8,0.5,2.8,0.5c1.2,0.2,2,1.4,1.8,2.6
		c-0.2,1.1-1.1,1.8-2.1,1.8L226.6,10z"/>
</g>
</svg>
