<?xml version="1.0" encoding="utf-8"?>
<!-- Generator: Adobe Illustrator 19.0.0, SVG Export Plug-In . SVG Version: 6.00 Build 0)  -->
<svg version="1.1" id="Layer_1" xmlns="http://www.w3.org/2000/svg" xmlns:xlink="http://www.w3.org/1999/xlink" x="0px" y="0px"
	 viewBox="0 0 256 256" style="enable-background:new 0 0 256 256;" xml:space="preserve">
<style type="text/css">
	.st0{fill:#0080CB;}
</style>
<path id="XMLID_2_" class="st0" d="M216.9,15.7c0,0-1,0-2.8,0c-1.9,0-4.5,0.1-8,0.2c-1.7,0.1-3.7,0.2-5.8,0.3
	c-2.1,0.1-4.5,0.3-7,0.5c-2.5,0.2-5.2,0.5-8,0.9c-2.8,0.3-5.8,0.8-9,1.3C163.8,21,148.9,24.6,133,31c-3.9,1.6-8,3.4-12,5.3
	c-4,1.9-8.1,4.1-12.2,6.4c-4,2.4-8.1,4.9-12.1,7.6c-4,2.7-8,5.7-11.8,8.9C77.2,65.6,69.7,72.7,63,80.8c-6.7,8.1-12.7,16.8-17.5,26.4
	c-2.4,4.8-4.5,9.7-6.4,14.7c-0.9,2.5-1.7,5.1-2.5,7.7l-0.5,1.9c0.2-0.6,0,0,0-0.1l-0.1,0.3l-0.2,0.6l-0.3,1.2
	c-0.1,0.5-0.1,0.7-0.2,0.9l-0.1,0.8l-0.3,1.7c-0.4,2.4-0.8,4.9-1,7.3c-0.2,2.4-0.3,4.8-0.3,7.1c0.1,4.7,0.7,9.3,1.8,13.6
	c2.3,8.6,6.4,16.3,12.5,22.7c3,3.2,6.6,6,10.6,8.6c3.9,2.6,8.3,4.8,13.1,6.6c4.8,1.8,9.9,3.2,15.3,4.2c2.7,0.5,5.5,0.8,8.3,1.2
	c1.4,0.2,2.8,0.3,4.3,0.4l2.4,0.1l1.4,0.1l0.7,0l0.5,0l2.1,0.1l1,0l1.1,0c1.5,0,3.1,0,4.6,0c3.1,0,6.1-0.2,9.1-0.4
	c6.1-0.4,12-1.3,17.9-2.4c11.7-2.2,23-6,33.2-11.2c5.1-2.7,10-5.5,14.5-8.7c2.3-1.6,4.5-3.3,6.5-5c2.1-1.8,4.1-3.6,6-5.5
	c3.7-3.8,7-7.8,9.9-11.9c2.9-4.1,5.1-8.4,6.8-12.6c1.7-4.2,2.8-8.5,3.3-12.5c0.2-2,0.4-4.1,0.4-6.1c0-2-0.2-3.9-0.5-5.9
	c-0.1-0.5-0.1-1-0.3-1.5c-0.1-0.5-0.2-1-0.3-1.4l-0.2-0.7l-0.1-0.4c0.1,0.2-0.2-0.7,0.2,0.4l-0.1-0.3l-0.4-1.2l-0.2-0.5l0-0.1
	c0-0.1,0-0.1,0-0.2l-0.2-0.5c-0.1-0.4-0.3-0.7-0.4-1c-0.3-0.7-0.6-1.3-1-2c-0.7-1.3-1.5-2.5-2.5-3.6c-1-1.2-2.1-2.3-3.4-3.4
	c-2.6-2.2-5.9-4.1-9.7-5.5c-3.8-1.5-8.1-2.4-12.6-3c-9-1.1-18.5-0.2-27.4,2.3c-4.4,1.2-8.7,2.8-12.8,4.7c-4,1.9-8,4.3-10.9,6.3
	c-3,2.1-5.7,4.6-7.9,7.2c-2.2,2.6-3.9,5.4-4.9,8c-1,2.6-1.6,4.9-1.6,7.1c0,2.2,0.5,4.4,1.8,6.7c1.2,2.3,3.1,4.7,5.6,6.8l0.3,0.3
	l0.1,0.1l0.2,0.2c0.2,0.2,0.3,0.3,0.6,0.5l0.8,0.6l0.8,0.5c1.1,0.7,2.3,1.3,3.5,1.8c2.4,1,5.1,1.5,7.8,1.7c2.7,0.1,5.4-0.2,8-0.7
	c5.2-1.1,9.9-3.4,13.9-5.8c2-1.2,3.7-2.5,5.3-3.8c0.8-0.6,1.5-1.2,2.2-1.9c0.7-0.6,1.4-1.2,2-1.8c1.2-1.2,2.2-2.3,3.2-3.2
	c0.9-1,1.6-1.8,2.2-2.5c1.1-1.4,1.7-2.1,1.7-2.1l0.3-0.3c0.7-0.8,1.9-0.9,2.7-0.3c0.7,0.6,0.9,1.6,0.5,2.4c0,0-0.4,0.9-1.3,2.5
	c-0.4,0.8-1,1.8-1.7,3c-0.7,1.2-1.6,2.5-2.6,4c-2.1,3-4.8,6.5-8.7,10.2c-3.9,3.6-8.8,7.3-15.2,10.1c-3.2,1.3-6.7,2.4-10.5,3
	c-3.8,0.5-7.9,0.7-12.1-0.1c-4.2-0.7-8.4-2.1-12.5-4.5c-3.8-2.3-7.6-5.2-10.8-9c-3.2-3.7-5.8-8.3-7.1-13.5
	c-1.3-5.1-1.4-10.7-0.3-16.1c1.1-5.4,3.2-10.7,6.1-15.6c2.9-4.9,6.5-9.5,10.9-13.5c2.1-2,4.5-3.9,6.9-5.7c2.4-1.8,4.9-3.4,7.5-5
	c5.2-3.2,10.7-5.9,16.6-8.1c11.7-4.5,24.7-7,38.1-6.6c6.7,0.2,13.5,1.1,20.2,3c6.7,1.9,13.2,4.7,19.2,8.7c6,3.9,11.4,9.1,15.6,15.2
	c2.1,3.1,3.8,6.3,5.3,9.8c0.4,0.9,0.7,1.7,1,2.5c0.4,1,0.6,1.8,0.9,2.7c0.3,0.9,0.5,1.8,0.8,2.6c0.3,0.9,0.5,1.8,0.7,2.7
	c3.6,14.4,2.5,30-2.4,44.3c-4.9,14.3-13.3,27.4-23.7,38.5c-10.4,11.1-23,20.3-36.5,27.4c-13.6,7.1-28.3,12.1-43.4,15.2
	c-7.5,1.5-15.2,2.4-22.8,2.9c-7.7,0.5-15.3,0.5-23,0.1c-1.9-0.1-3.7-0.3-5.7-0.4c-1.9-0.2-3.8-0.4-5.7-0.6
	c-3.8-0.5-7.6-1.1-11.3-1.9c-7.5-1.6-14.9-3.8-21.9-6.7c-14.1-5.8-27.1-14.7-36.9-26.2c-9.9-11.5-16.4-25.5-19-40
	c-2.7-14.5-1.6-29.2,2.1-42.7c0.4-1.7,1-3.4,1.5-5l0.8-2.4l0.9-2.4c1.2-3.2,2.5-6.4,3.9-9.5c2.8-6.2,5.9-12.1,9.4-17.7
	C27,80.3,35.1,70.3,43.9,61.6c8.8-8.7,18.2-16.1,27.8-22.4c9.6-6.3,19.3-11.4,28.9-15.5c9.6-4.1,19-7.1,28-9.4
	c18-4.6,34.2-6.1,47.5-6.2c13.3-0.1,23.7,1,30.7,2c1.8,0.2,3.3,0.5,4.7,0.7c1.4,0.2,2.5,0.4,3.4,0.6c1.8,0.3,2.7,0.5,2.7,0.5
	c1,0.2,1.7,1.2,1.5,2.2c-0.2,0.9-1,1.6-1.9,1.6L216.9,15.7z"/>
</svg>
