<?xml version="1.0" encoding="utf-8"?>
<!-- Generator: Adobe Illustrator 19.0.0, SVG Export Plug-In . SVG Version: 6.00 Build 0)  -->
<svg version="1.1" xmlns="http://www.w3.org/2000/svg" xmlns:xlink="http://www.w3.org/1999/xlink" x="0px" y="0px"
	 viewBox="0 0 256 256" style="enable-background:new 0 0 256 256;" xml:space="preserve">
<style type="text/css">
	.st0{fill:none;}
</style>
<g id="legs">
</g>
<g id="body">
	<g id="XMLID_1_">
		<path id="XMLID_59_" d="M211.1,195.9c0,0,0.2,0.1,0.5,0.3c0.3,0.2,0.7,0.5,1.2,0.8c0.5,0.3,1.2,0.7,2,1.2c0.4,0.2,0.8,0.4,1.2,0.6
			c0.4,0.2,0.9,0.4,1.4,0.6c1,0.4,2,0.8,3.1,1.2c1.1,0.4,2.3,0.7,3.5,1c1.2,0.3,2.5,0.6,3.7,0.8c0.6,0.1,1.3,0.2,1.9,0.3
			c0.6,0.1,1.3,0.2,1.9,0.3c0.6,0.1,1.3,0.1,2,0.1l1-0.2c0,0-0.2-0.2-0.1-0.2h0l0,0.1l0.1,0.1l0.1,0l0.3,0l0.6,0c0.2,0,0.4,0,0.6,0
			l0.4-0.1c0.3,0,0.6-0.1,0.9-0.1c0.6,0,1.2,0,1.8,0.1c1.1,0.2,2.2,0.7,3.2,1.3c1,0.6,2,1.3,2.9,2c0.9,0.7,1.8,1.5,2.5,2.3
			c0.4,0.4,0.8,0.8,1.1,1.2c0.3,0.4,0.7,0.8,1,1.1c0.3,0.3,0.6,0.7,0.8,1c0.2,0.3,0.4,0.5,0.6,0.8c0.3,0.4,0.5,0.7,0.5,0.7l0,1.9
			c0,0-0.2,0.3-0.5,0.7c-0.2,0.2-0.4,0.5-0.7,0.8c-0.3,0.3-0.6,0.6-0.9,0.9c-0.3,0.3-0.7,0.7-1.2,1c-0.4,0.3-0.9,0.7-1.4,1
			c-1,0.7-2.2,1.3-3.4,1.8c-1.3,0.5-2.7,0.9-4.2,1.1c-1.5,0.2-3,0.2-4.6-0.2c-0.8-0.2-1.5-0.5-2.3-0.9c-0.4-0.2-0.8-0.4-1.2-0.6
			l-0.6-0.3c-0.2-0.1-0.3-0.2-0.5-0.3l-0.5-0.3l-0.2-0.2l-0.1-0.1l-0.1,0l0,0l0,0c0.1,0-0.1,0-0.1,0l-1.1-0.7
			c-0.7-0.5-1.5-0.9-2.2-1.4c-0.7-0.5-1.4-0.9-2.2-1.4c-0.7-0.5-1.4-1-2.1-1.5c-0.7-0.5-1.3-1-1.9-1.6c-0.6-0.5-1.2-1.1-1.8-1.7
			c-1.1-1.2-2.2-2.3-3.1-3.5c-0.5-0.6-0.9-1.2-1.3-1.7c-0.4-0.6-0.7-1.1-1.1-1.7c-0.6-1.1-1.2-2.1-1.6-3c-0.4-0.9-0.7-1.7-0.9-2.4
			c-0.2-0.7-0.4-1.2-0.5-1.6c-0.1-0.4-0.1-0.6-0.1-0.6L211.1,195.9z"/>
		<path id="XMLID_58_" d="M144.4,217c0,0,0,0.2,0.1,0.6c0,0.4,0.1,0.9,0.2,1.5c0,0.3,0.1,0.7,0.2,1.1c0.1,0.4,0.2,0.8,0.3,1.2
			c0.2,0.8,0.5,1.8,0.9,2.7c0.4,0.9,0.9,1.9,1.4,2.9c0.3,0.5,0.6,0.9,0.9,1.4c0.4,0.4,0.7,0.9,1.1,1.3c0.4,0.4,0.7,0.9,1.2,1.3
			c0.5,0.4,0.8,0.8,1.3,1.2c0.4,0.4,0.9,0.7,1.4,1.1l1.4,1c0.5,0.3,1.1,0.6,1.6,0.9l0.2,0.1l0.1,0l0.1,0c0.1,0.1-0.1-0.1-0.1-0.1
			l0,0l0,0l0.5,0.3l0.5,0.2c0.2,0.1,0.4,0.2,0.5,0.2l0.8,0.2c0.2,0.1,0.6,0.2,0.8,0.3c0.5,0.2,1.1,0.4,1.5,0.8
			c0.9,0.6,1.7,1.4,2.4,2.3c0.7,0.9,1.4,1.9,1.9,2.9c0.6,1,1.1,2,1.6,3.1c0.5,1,0.9,2,1.2,2.9c0.2,0.4,0.3,0.8,0.4,1.2
			c0.1,0.4,0.2,0.7,0.3,1c0.2,0.5,0.2,0.9,0.2,0.9l-0.7,1.8c0,0-0.3,0.2-0.8,0.5c-0.3,0.2-0.6,0.3-0.9,0.5c-0.4,0.2-0.8,0.4-1.2,0.6
			c-0.4,0.2-0.9,0.4-1.5,0.6c-0.5,0.2-1.1,0.3-1.7,0.4c-1.2,0.2-2.6,0.4-4,0.4c-1.4,0-2.9-0.2-4.5-0.6c-1.5-0.4-3.1-1.1-4.5-2.1
			c-1.4-1.1-2.5-2.5-3.7-4.2c-0.2-0.2-0.2-0.4-0.3-0.6l-0.3-0.5l-0.3-0.5l0,0l0,0c0,0-0.2-0.2-0.1-0.1l0-0.1l-0.1-0.2l-0.2-0.3
			c-0.5-0.9-1-1.6-1.5-2.4c-0.5-0.8-0.9-1.7-1.4-2.5c-0.4-0.8-0.8-1.7-1.2-2.6c-0.4-0.9-0.6-1.8-0.9-2.6c-0.3-0.9-0.4-1.8-0.6-2.7
			c-0.2-0.9-0.2-1.8-0.3-2.6c-0.1-0.9-0.1-1.7-0.1-2.5c0-0.8,0.1-1.6,0.2-2.3c0.1-0.7,0.2-1.4,0.3-2.1c0.3-1.3,0.6-2.5,1-3.5
			c0.4-1,0.8-1.8,1.1-2.5c0.4-0.6,0.7-1.2,0.9-1.5c0.2-0.3,0.3-0.5,0.3-0.5L144.4,217z"/>
		<path id="XMLID_19_" d="M46.5,196.9c0,0,0,0.2-0.1,0.6c-0.1,0.4-0.2,0.9-0.5,1.6c-0.2,0.7-0.5,1.5-0.9,2.4c-0.4,0.9-0.9,2-1.6,3
			c-0.3,0.5-0.7,1.1-1.1,1.7c-0.4,0.5-0.8,1.1-1.3,1.7c-0.9,1.2-1.9,2.3-3.1,3.5c-0.6,0.5-1.2,1.1-1.8,1.7c-0.6,0.5-1.3,1.1-1.9,1.6
			c-0.7,0.5-1.4,1-2.1,1.5c-0.7,0.5-1.4,0.9-2.2,1.4c-0.7,0.5-1.5,0.9-2.2,1.4l-1.1,0.7c0,0-0.2,0.1-0.1,0l0,0l0,0l-0.1,0l-0.1,0.1
			l-0.2,0.2l-0.5,0.3c-0.2,0.1-0.3,0.2-0.5,0.3l-0.6,0.3c-0.4,0.2-0.8,0.5-1.2,0.6c-0.8,0.4-1.5,0.7-2.3,0.9
			c-1.5,0.4-3.1,0.4-4.6,0.2c-1.5-0.2-2.9-0.6-4.2-1.1c-1.3-0.5-2.4-1.1-3.4-1.8c-0.5-0.3-1-0.7-1.4-1c-0.4-0.4-0.8-0.7-1.2-1
			c-0.3-0.3-0.7-0.7-0.9-0.9c-0.3-0.3-0.5-0.5-0.7-0.8c-0.4-0.4-0.5-0.7-0.5-0.7l0-1.9c0,0,0.2-0.3,0.5-0.7c0.2-0.2,0.4-0.5,0.6-0.8
			c0.2-0.3,0.5-0.7,0.8-1c0.3-0.3,0.6-0.7,1-1.1c0.3-0.4,0.7-0.8,1.1-1.2c0.8-0.8,1.6-1.6,2.5-2.3c0.9-0.8,1.9-1.4,2.9-2
			c1-0.6,2.1-1.1,3.2-1.3c0.6-0.1,1.2-0.1,1.8-0.1c0.3,0,0.6,0,0.9,0.1l0.4,0.1c0.2,0,0.4,0,0.6,0l0.6,0l0.3,0l0.1,0l0.1-0.1l0-0.1
			h0c0.1,0-0.1,0.2-0.1,0.2l1,0.1c0.7,0,1.3,0,2,0c0.6-0.1,1.3-0.2,1.9-0.3c0.6-0.1,1.3-0.2,1.9-0.3c1.2-0.3,2.5-0.5,3.7-0.8
			c1.2-0.3,2.4-0.7,3.5-1c1.1-0.4,2.1-0.8,3.1-1.2c0.5-0.2,0.9-0.4,1.4-0.6c0.4-0.2,0.8-0.4,1.2-0.6c0.8-0.4,1.4-0.8,2-1.2
			c0.5-0.4,0.9-0.6,1.2-0.8c0.3-0.2,0.5-0.3,0.5-0.3L46.5,196.9z"/>
		<path id="XMLID_15_" d="M181.9,210.1c0,0,0.1,0.2,0.2,0.5c0.2,0.3,0.4,0.8,0.7,1.4c0.3,0.6,0.7,1.3,1.2,2c0.3,0.4,0.5,0.8,0.8,1.1
			c0.3,0.4,0.6,0.8,1,1.2c0.7,0.8,1.5,1.6,2.4,2.4c0.9,0.8,1.8,1.5,2.9,2.2c0.5,0.3,1,0.7,1.6,1c0.6,0.3,1.1,0.7,1.7,0.9
			c1.1,0.6,2.3,1.2,3.5,1.7c0.6,0.2,1.3,0.4,1.9,0.6l0.2,0.1l0,0l0,0c0,0,0.1,0.1-0.1-0.1l0.1,0l0.1,0l0.6,0.1l0.6,0.1l0.3,0.1
			l0.2,0l0.9,0.1c0.3,0,0.6,0.1,1,0.1c0.6,0.1,1.2,0.3,1.8,0.5c1.1,0.4,2.1,1.2,3,2c0.9,0.8,1.8,1.7,2.6,2.6
			c0.8,0.9,1.5,1.9,2.2,2.8c0.7,0.9,1.2,1.9,1.7,2.7c0.2,0.4,0.4,0.8,0.6,1.1c0.2,0.3,0.3,0.6,0.5,0.9c0.3,0.5,0.4,0.8,0.4,0.8
			l-0.4,1.9c0,0-0.3,0.2-0.7,0.6c-0.2,0.2-0.5,0.4-0.8,0.6c-0.3,0.2-0.7,0.5-1.1,0.7c-0.4,0.2-0.9,0.5-1.4,0.8
			c-0.5,0.2-1.1,0.5-1.7,0.7c-1.2,0.4-2.5,0.8-3.9,1c-1.4,0.2-3,0.3-4.5,0.1c-1.6-0.1-3.2-0.5-4.8-1.3c-0.8-0.4-1.5-0.9-2.2-1.4
			c-0.4-0.3-0.7-0.6-1-0.9c-0.4-0.3-0.7-0.7-1.1-1l-0.3-0.3l-0.2-0.2l-0.4-0.5l-0.4-0.5l-0.1-0.1l-0.1-0.1c-0.2-0.2-0.1-0.1-0.1-0.1
			l0,0l0,0l-0.2-0.3c-0.6-0.7-1.3-1.4-1.9-2c-1.3-1.4-2.6-2.7-3.7-4.2c-0.6-0.7-1.1-1.5-1.6-2.3c-0.5-0.7-0.9-1.6-1.3-2.3
			c-0.8-1.6-1.5-3.1-2-4.7c-0.5-1.5-0.8-3-1-4.3c-0.2-1.4-0.2-2.6-0.2-3.7c0-1.1,0.1-2,0.2-2.8c0.1-0.8,0.2-1.4,0.3-1.8
			c0.1-0.4,0.2-0.6,0.2-0.6L181.9,210.1z"/>
		<path id="XMLID_8_" d="M72.2,210.2c0,0,0.1,0.2,0.2,0.6c0.1,0.4,0.2,1,0.3,1.8c0.1,0.8,0.2,1.7,0.2,2.8c0,1.1,0,2.3-0.2,3.7
			c-0.2,1.4-0.5,2.8-1,4.3c-0.5,1.5-1.1,3.1-2,4.7c-0.4,0.8-0.8,1.6-1.3,2.3c-0.5,0.8-1,1.6-1.6,2.3c-1.1,1.5-2.4,2.9-3.7,4.2
			c-0.7,0.7-1.3,1.3-1.9,2l-0.2,0.3l0,0l0,0c-0.1,0,0.1-0.1-0.1,0.1l-0.1,0.1l-0.1,0.1l-0.4,0.5l-0.4,0.5l-0.2,0.2l-0.3,0.3
			c-0.4,0.3-0.7,0.7-1.1,1c-0.4,0.3-0.7,0.6-1,0.9c-0.7,0.6-1.4,1-2.2,1.4c-1.5,0.8-3.2,1.2-4.8,1.3c-1.6,0.2-3.1,0.1-4.5-0.1
			c-1.4-0.2-2.8-0.6-3.9-1c-0.6-0.2-1.1-0.5-1.7-0.7c-0.5-0.3-1-0.5-1.4-0.8c-0.4-0.2-0.8-0.5-1.1-0.7c-0.3-0.2-0.6-0.4-0.8-0.6
			c-0.5-0.4-0.7-0.6-0.7-0.6l-0.4-1.9c0,0,0.1-0.3,0.4-0.8c0.1-0.3,0.3-0.6,0.5-0.9c0.2-0.3,0.4-0.8,0.6-1.1c0.5-0.8,1-1.8,1.7-2.7
			c0.7-0.9,1.4-1.9,2.2-2.8c0.8-0.9,1.7-1.8,2.6-2.6c0.9-0.8,1.9-1.6,3-2c0.5-0.2,1.2-0.4,1.8-0.5c0.3-0.1,0.7-0.1,1-0.1l0.9-0.1
			l0.2,0l0.3-0.1l0.6-0.1l0.6-0.1l0.1,0l0.1,0c-0.2,0.2-0.1,0-0.1,0.1l0,0l0,0l0.2-0.1c0.7-0.1,1.3-0.4,1.9-0.6
			c1.2-0.5,2.4-1.1,3.5-1.7c0.6-0.3,1.1-0.6,1.7-0.9c0.6-0.3,1.1-0.7,1.6-1c1.1-0.7,2-1.4,2.9-2.2c0.9-0.8,1.7-1.6,2.4-2.4
			c0.3-0.4,0.7-0.8,1-1.2c0.3-0.4,0.6-0.8,0.8-1.1c0.5-0.7,0.9-1.4,1.2-2c0.3-0.6,0.5-1,0.7-1.4c0.2-0.4,0.2-0.5,0.2-0.5L72.2,210.2
			z"/>
		<path id="XMLID_7_" d="M109.6,216.5c0,0,0.1,0.2,0.3,0.5c0.2,0.3,0.5,0.8,0.9,1.5c0.4,0.7,0.8,1.5,1.1,2.5c0.4,1,0.8,2.2,1,3.5
			c0.2,0.7,0.2,1.4,0.3,2.1c0.1,0.7,0.1,1.5,0.2,2.3c0,0.8,0,1.6-0.1,2.5c-0.1,0.8-0.2,1.7-0.3,2.6c-0.2,0.9-0.4,1.8-0.6,2.7
			c-0.3,0.9-0.6,1.8-0.9,2.6c-0.4,0.9-0.7,1.7-1.2,2.6c-0.5,0.8-0.9,1.7-1.4,2.5c-0.5,0.8-1,1.6-1.5,2.4l-0.2,0.3l-0.1,0.2l0,0.1
			c0.1-0.1-0.2,0.2-0.1,0.1l0,0l0,0l-0.3,0.5l-0.3,0.5c-0.1,0.2-0.2,0.3-0.3,0.6c-1.2,1.8-2.3,3.2-3.7,4.2c-1.4,1-2.9,1.7-4.5,2.1
			c-1.5,0.4-3,0.6-4.5,0.6c-1.4,0-2.8-0.1-4-0.4c-0.6-0.1-1.2-0.3-1.7-0.4c-0.5-0.2-1-0.4-1.5-0.6c-0.4-0.2-0.9-0.4-1.2-0.6
			c-0.4-0.2-0.7-0.3-0.9-0.5c-0.5-0.3-0.8-0.5-0.8-0.5l-0.7-1.8c0,0,0.1-0.3,0.2-0.9c0.1-0.3,0.2-0.6,0.3-1c0.1-0.4,0.3-0.8,0.4-1.2
			c0.3-0.9,0.7-1.9,1.2-2.9c0.5-1,1-2.1,1.6-3.1c0.6-1,1.2-2,1.9-2.9c0.7-0.9,1.4-1.8,2.4-2.3c0.4-0.3,1-0.5,1.5-0.8
			c0.3-0.1,0.6-0.2,0.8-0.3l0.8-0.2c0.1,0,0.3-0.1,0.5-0.2l0.5-0.2l0.5-0.3l0,0l0,0c0,0-0.2,0.2-0.1,0.1l0.1,0l0.1,0l0.2-0.1
			c0.6-0.2,1.1-0.5,1.6-0.9l1.4-1c0.5-0.4,0.9-0.8,1.4-1.1c0.5-0.4,0.8-0.8,1.3-1.2c0.4-0.4,0.8-0.8,1.2-1.3
			c0.4-0.4,0.7-0.9,1.1-1.3c0.3-0.5,0.6-0.9,0.9-1.4c0.5-0.9,1.1-1.9,1.4-2.9c0.4-0.9,0.7-1.9,0.9-2.7c0.1-0.4,0.2-0.8,0.3-1.2
			c0.1-0.4,0.2-0.7,0.2-1.1c0.1-0.7,0.2-1.1,0.2-1.5c0-0.4,0.1-0.6,0.1-0.6L109.6,216.5z"/>
		<g id="XMLID_18_">
			<path id="XMLID_5_" d="M116.1,141.8c0,0-1.3,0.3-3.7,0.7c-2.4,0.5-5.9,1.2-10.4,2.2c-4.4,1-9.8,2.4-15.7,4.2
				c-5.9,1.8-12.6,4.1-19.1,7.4c-1.6,0.8-3.2,1.7-4.8,2.7c-1.5,1-3,2-4.3,3.1c-1.3,1.1-2.4,2.3-3.1,3.4c-0.1,0.1-0.2,0.3-0.2,0.4
				l-0.2,0.4c-0.2,0.3-0.2,0.5-0.3,0.7c-0.1,0.4,0.2,0.7,0.3,1c0,0,0.4,0.1,0.4,0.1v0c0,0.1-0.4-1-0.4-0.5l-0.2,0.1l0,0.8l0,0.2
				c0,0.1,0,0.2,0,0.1c0,0,0-0.1,0-0.1c0-0.1,0-0.1,0-0.1c0.1,0.1,0.2,0.3,0.3,0.5c0.2,0.2,0.2,0.4,0.4,0.6c0.7,0.8,1.9,1.9,3.3,2.8
				c1.5,1,3.2,1.9,5.1,2.7c1.9,0.8,3.8,1.6,5.9,2.3c4.2,1.4,8.6,2.6,13.2,3.5c4.6,0.9,9.4,1.7,14.2,2.3c4.8,0.6,9.8,1,14.7,1.3
				c2.5,0.1,5,0.2,7.5,0.3l3.8,0.1l3.7,0l3.9,0l3.7-0.1l3.7-0.1l3.7-0.2c5-0.3,9.9-0.7,14.7-1.3c2.4-0.3,4.8-0.7,7.2-1.1
				c2.4-0.4,4.7-0.8,7-1.3c4.6-1,9-2.2,13.2-3.6c4.1-1.4,7.9-3.2,10.8-5.1c1.4-1,2.5-2,3.1-2.8c0.1-0.2,0.3-0.4,0.3-0.5
				c0-0.1,0.1-0.1,0.1-0.2c0-0.1,0-0.1,0.1-0.2c0.1-0.1,0.1-0.2,0.1-0.3l0,0c0,0.2,0-0.5,0,0.5l0-0.1l0-0.4l0-0.4l0-0.2l0-0.1l0,0
				c0,0.4,0.1-0.2-0.1-0.6c-0.1-0.4-0.4-1-0.8-1.5c-0.8-1.1-2-2.3-3.3-3.4c-2.7-2.2-5.9-4.1-9.2-5.7c-6.6-3.2-13.2-5.5-19.2-7.3
				c-6-1.8-11.3-3.1-15.8-4.1c-4.4-1-8-1.7-10.4-2.2c-2.4-0.5-3.7-0.7-3.7-0.7s0.3,0,1-0.1c0.6-0.1,1.6-0.2,2.8-0.3
				c2.5-0.2,6.1-0.5,10.7-0.5c4.6-0.1,10.3,0.1,16.8,0.7c6.5,0.7,13.8,1.8,21.8,4.3c4,1.3,8.1,2.9,12.4,5.5c2.1,1.3,4.3,2.9,6.3,5.1
				c1,1.1,2,2.4,2.9,3.9l0.6,1.2c0.2,0.4,0.4,0.9,0.5,1.3l0.2,0.7c0.1,0.2,0.2,0.5,0.2,0.8c0.1,0.6,0.3,1.2,0.4,1.8l0.1,0.3l0,0.2
				l0.1,0.4l0.1,0.4l0,0.1c0,1.1,0,0.4,0,0.7l0,0.4c0,1-0.1,2-0.3,3c-0.1,0.5-0.2,1-0.3,1.5c-0.1,0.5-0.3,0.9-0.5,1.4
				c-0.2,0.5-0.3,0.9-0.5,1.3l-0.6,1.2c-1.8,3.2-4,5.5-6.3,7.5c-2.3,1.9-4.6,3.5-7.1,4.9c-2.4,1.4-4.9,2.6-7.3,3.7
				c-5,2.2-10.1,3.8-15.2,5.2c-2.6,0.7-5.2,1.3-7.8,1.9c-2.6,0.5-5.3,1-7.9,1.4c-5.3,0.8-10.7,1.5-16.1,1.9l-4.1,0.3l-4.1,0.2
				l-4.1,0.1l-3.9,0.1l-4.1,0l-4.1-0.1c-2.7-0.1-5.4-0.2-8.1-0.4c-5.4-0.4-10.8-1-16.1-1.8c-5.3-0.8-10.6-1.9-15.7-3.3
				c-5.2-1.4-10.3-3-15.2-5.1c-2.5-1-4.9-2.2-7.3-3.6c-2.4-1.3-4.8-2.9-7.1-4.7c-2.3-1.9-4.5-4.1-6.4-7.1c-0.5-0.7-0.9-1.6-1.3-2.4
				c-0.4-0.8-0.7-1.8-1-2.7c-0.1-0.6-0.3-1.2-0.4-1.8l-0.1-0.9c0-0.2,0-0.2,0-0.3l0-0.2l0-0.8l0-0.8l0-0.4l0.1-0.7
				c0.1-1,0.3-1.9,0.6-2.9c0.3-0.9,0.6-1.8,1-2.6c0.4-0.8,0.8-1.6,1.3-2.2l0.7-1c0.2-0.3,0.5-0.6,0.7-0.9c2-2.3,4.1-4,6.3-5.4
				c2.1-1.4,4.2-2.4,6.3-3.4c2.1-0.9,4.1-1.7,6.1-2.3c8-2.6,15.3-3.7,21.8-4.4c6.5-0.7,12.1-0.8,16.8-0.8c4.6,0,8.3,0.3,10.7,0.5
				c1.2,0.1,2.2,0.2,2.8,0.3C115.8,141.8,116.1,141.8,116.1,141.8z"/>
		</g>
		<g id="XMLID_2_">
			<path id="XMLID_4_" d="M29.2,169.5c0,0-1-1.4-2.8-4c-0.5-0.7-1-1.4-1.5-2.2c-0.3-0.4-0.5-0.8-0.8-1.3c-0.3-0.5-0.5-1-0.8-1.5
				c-0.6-1-1.2-2.2-1.9-3.4c-0.3-0.6-0.7-1.2-1-1.9c-0.3-0.7-0.6-1.3-0.9-2c-0.6-1.4-1.3-2.9-1.9-4.4c-0.2-0.4-0.3-0.8-0.5-1.2
				c-0.1-0.4-0.3-0.8-0.4-1.2c-0.3-0.8-0.6-1.7-0.9-2.6c-0.3-0.9-0.6-1.8-0.9-2.7c-0.1-0.5-0.3-0.9-0.5-1.4c-0.1-0.5-0.2-1-0.4-1.5
				c-0.5-2-1-4-1.5-6.1c-1.7-8.6-2.5-18.6-1.5-29.6c1-11,3.8-23,9.2-34.8c0.7-1.5,1.4-3,2.1-4.5c0.2-0.4,0.4-0.8,0.5-1.1l0.6-1.1
				c0.4-0.7,0.8-1.4,1.2-2.2c0.8-1.5,1.7-2.9,2.5-4.4c0.9-1.4,1.9-2.8,2.9-4.2c1-1.4,2-2.9,3-4.3c1.1-1.3,2.2-2.7,3.3-4.1
				c0.6-0.7,1.1-1.4,1.7-2l0.9-1l1.1-1.2c1.1-1.1,2.1-2.3,3.2-3.4c1.4-1.3,2.8-2.7,4.2-4c0.7-0.7,1.4-1.2,2.1-1.8l2.1-1.8
				c1.4-1.2,2.9-2.3,4.4-3.4c1.5-1.1,3-2.2,4.6-3.2c6.2-4.2,12.9-7.8,20-10.8C94.8,3.2,110.4,0,126.1,0c15.7,0,31.3,3.2,45.5,9.1
				c14.2,5.9,26.9,14.6,37.1,24.7c1.2,1.3,2.5,2.6,3.7,3.9l1.3,1.4l0.7,0.9l1.5,1.8c1,1.2,1.9,2.4,2.9,3.5c1.1,1.4,2.2,3,3.2,4.5
				c1,1.5,2.1,3,3.1,4.5c0.8,1.5,1.7,2.9,2.5,4.4c0.4,0.7,0.8,1.5,1.2,2.2l0.6,1.1c0.2,0.4,0.4,0.7,0.5,1.1c0.7,1.5,1.4,3,2.1,4.5
				c5.4,11.9,8.2,23.8,9.2,34.8c1,11,0.1,21.1-1.6,29.6c-0.5,2.1-1,4.2-1.5,6.1c-0.1,0.5-0.2,1-0.4,1.5c-0.2,0.5-0.3,0.9-0.5,1.4
				c-0.3,0.9-0.6,1.8-0.9,2.7c-0.3,0.9-0.6,1.7-0.9,2.6c-0.1,0.4-0.3,0.8-0.4,1.2c-0.2,0.4-0.3,0.8-0.5,1.2
				c-0.7,1.6-1.3,3.1-1.9,4.4c-0.3,0.7-0.6,1.4-0.9,2c-0.3,0.6-0.7,1.3-1,1.9c-0.7,1.2-1.3,2.3-1.8,3.3c-0.6,1-1,2-1.6,2.8
				c-0.6,0.8-1.1,1.6-1.5,2.2c-1.8,2.7-2.8,4-2.8,4s0.2-1.7,0.8-4.8c0.3-1.6,0.6-3.4,0.8-5.7c0.1-1.1,0.3-2.3,0.4-3.6
				c0.1-0.6,0.2-1.3,0.2-2c0-0.7,0.1-1.4,0.1-2.1c0.1-1.4,0.1-2.9,0.2-4.5c0-0.4,0-0.8,0.1-1.2c0-0.4,0-0.8,0-1.2c0-0.8,0-1.6,0-2.5
				c0-0.8,0-1.7,0-2.6c0-0.4,0-0.9,0-1.3c0-0.4-0.1-0.9-0.1-1.3c-0.1-1.8-0.3-3.6-0.4-5.6c-0.9-7.6-2.5-15.9-5.4-24.5
				c-2.9-8.5-7.1-17.2-12.7-25.4c-0.7-1-1.4-2-2.1-3.1c-0.2-0.3-0.3-0.5-0.5-0.8l-0.6-0.7l-1.2-1.5c-0.8-1-1.6-2-2.4-3
				c-0.8-0.9-1.6-1.7-2.4-2.6c-0.8-0.9-1.6-1.7-2.4-2.6c-1.1-1-2.2-2.1-3.3-3.2l-1.7-1.6l-0.8-0.8l-0.1-0.1c0.2,0.2-0.5-0.5,0.3,0.4
				l-0.2-0.2l-0.4-0.3c-1-0.8-2-1.7-3-2.5c-8.3-6.5-17.7-11.8-27.9-15.4c-10.2-3.6-21.1-5.5-32-5.5c-10.9,0-21.8,1.9-32,5.5
				c-5.1,1.8-10,4-14.7,6.6c-1.2,0.6-2.3,1.3-3.5,2c-1.1,0.7-2.3,1.4-3.4,2.1L71,55.4c-0.5,0.4-1.1,0.7-1.6,1.1
				c-1,0.7-1.9,1.4-2.9,2.1c-1.2,1-2.4,2-3.5,3L62.5,62l-0.2,0.2c0.6-0.6,0.1-0.1,0.2-0.2l-0.1,0.1l-0.7,0.7l-1.4,1.3
				c-1,0.9-1.9,1.8-2.9,2.6c-0.9,0.9-1.8,1.9-2.6,2.8c-0.9,0.9-1.8,1.8-2.6,2.8c-0.8,1-1.6,2-2.4,2.9l-1.2,1.5L48,77.5
				c-0.2,0.3-0.4,0.5-0.5,0.8c-0.7,1-1.4,2-2.1,3.1c-5.6,8.2-9.8,16.9-12.7,25.4c-2.9,8.5-4.5,16.9-5.4,24.5
				c-0.1,1.9-0.3,3.8-0.4,5.6c0,0.5-0.1,0.9-0.1,1.3c0,0.4,0,0.9,0,1.3c0,0.9,0,1.7,0,2.6c0,0.8,0,1.7,0,2.5c0,0.4,0,0.8,0,1.2
				c0,0.4,0,0.8,0.1,1.2c0.1,1.5,0.1,3,0.2,4.5c0,0.7,0.1,1.4,0.1,2.1c0.1,0.7,0.2,1.3,0.2,1.9c0.1,1.3,0.3,2.5,0.4,3.6
				c0.2,2.2,0.6,4.2,0.9,5.8C28.9,167.8,29.2,169.5,29.2,169.5z"/>
			<g id="XMLID_12_">
				<path id="XMLID_80_" class="st0" d="M223,169.5"/>
			</g>
			<g id="XMLID_9_">
				<path id="XMLID_79_" class="st0" d="M29.2,169.5"/>
			</g>
			<g id="XMLID_6_">
				<path id="XMLID_78_" class="st0" d="M223,169.5"/>
			</g>
			<g id="XMLID_3_">
				<path id="XMLID_77_" class="st0" d="M29.2,169.5"/>
			</g>
		</g>
	</g>
</g>
</svg>
